<?xml version="1.0" encoding="UTF-8" standalone="no"?>
<svg
		height="393.84613"
		width="393.84613"
		viewBox="0 0 5.0480766 5.0480766"
		version="1.1"
		id="svg3"
		xmlns="http://www.w3.org/2000/svg">
	<title>CommaFeed favicon</title>
	<defs
			id="defs3" />
	<rect
			fill="#f88a14"
			rx="0.53846151"
			ry="0.53846151"
			height="5.0480766"
			width="5.0480766"
			id="rect1"
			x="0"
			y="0"
			style="stroke-width:0.769231" />
	<path
			d="m 1.3450904,0.64548657 c 2.9002,0 2.9002,2.91010003 2.9002,2.91010003"
			fill="none"
			stroke="#ffffff"
			stroke-linecap="round"
			stroke-width="0.78125"
			id="path1" />
	<path
			d="m 1.3377904,1.9915866 c 1.5705,-0.00908 1.5705,1.5639 1.5705,1.5639"
			fill="none"
			stroke="#ffffff"
			stroke-linecap="round"
			stroke-width="0.78125"
			id="path2" />
	<path
			d="m 2.0192904,3.5227866 c 0,0.23366 -0.10712,0.47418 -0.24663,0.6537 -0.1814,0.2333 -0.5705,0.5618 -0.6913,0.5653 0.0402,-0.0662 0.263,-0.5654 0.2563,-0.5654 -0.36423004,0 -0.65950004,-0.29265 -0.65950004,-0.65365 0,-0.361 0.29527,-0.65365 0.65950004,-0.65365 0.36423,0 0.68159,0.29265 0.68159,0.65365 z"
			fill="#ffffff"
			id="path3" />
</svg>
