<?xml version="1.0" encoding="UTF-8" standalone="no"?>
<svg xmlns="http://www.w3.org/2000/svg" width="512" height="512" viewBox="0 0 16 16">
  <rect width="16" height="16" rx="2.2542372" ry="1.8983051" x="-8.8817837e-16" y="0" style="fill:#f88a14" />
  <path d="m 4.5806952,7.0696203 c 2.3462531,0 3.8275319,1.4812788 3.8275319,3.8275317 0.1049259,1.567391 1.9464529,1.530536 1.9604429,0 0,-3.1283371 -2.6596375,-5.7879749 -5.7879748,-5.7879749 -1.2876338,0.024082 -1.1163277,1.8670152 0,1.9604432 z" style="fill:#ffffff" />
  <path d="m 4.5806952,4.0822785 c 3.9104216,0 6.8148738,2.9044521 6.8148738,6.8148735 -0.0084,1.392331 1.867616,1.332716 1.960443,0 0,-4.6925057 -4.082811,-8.7753163 -8.7753168,-8.7753163 -1.2966556,0.018598 -1.167232,1.9341127 0,1.9604428 z" style="fill:#ffffff" />
  <g transform="matrix(1.8035352,0,0,1.8035352,23.14484,3.4162194)">
    <circle cx="2" cy="6" r="1" transform="translate(-11.966102,-2.1355932)" style="fill:#ffffff" />
    <path d="m -287.23531,128.17716 c 0,0 -3.17578,27.4663 -39.58757,46.68826 -13.03431,6.88087 -1.20385,3.39557 5.06016,-20.42474 6.26401,-23.82031 34.52741,-26.26352 34.52741,-26.26352 z" transform="scale(0.03125,0.03125)" style="fill:#ffffff" />
  </g>
</svg>
