<?xml version="1.0" encoding="UTF-8" standalone="no"?>
<svg xmlns="http://www.w3.org/2000/svg" version="1.1" width="512" height="512" viewBox="0 0 10.711864 10.711864">
  <rect width="10.711864" height="10.711864" rx="1.5091927" ry="1.2708992" x="0" y="0" style="fill:#ffa500" />
  <path d="m 2.7542368,4.7330509 c 1.5707966,0 2.8750003,1.3042037 2.8750003,2.875 0.070247,1.0493555 1.3031335,1.024681 1.3125,0 0,-2.0943951 -2.0931049,-4.1875001 -4.1875003,-4.1875001 -0.86206,0.016123 -0.747372,1.2499509 0,1.3125001 z" style="fill:#ffffff" />
  <path d="m 2.7542368,2.7330508 c 2.6179942,0 4.8750003,2.2570062 4.8750003,4.8750001 -0.00565,0.9321539 1.2503531,0.8922423 1.3125,0 0,-3.1415927 -3.0459073,-6.1875 -6.1875003,-6.1875 -0.8681,0.012451 -0.781452,1.2948721 0,1.3124999 z" style="fill:#ffffff" />
  <g transform="matrix(1.2074516,0,0,1.2074516,15.495275,2.2871299)">
    <circle cx="2" cy="6" r="1" transform="translate(-11.966102,-2.1355932)" style="fill:#ffffff" />
    <path d="m -287.23531,128.17716 c 0,0 -3.17578,27.4663 -39.58757,46.68826 -13.03431,6.88087 -1.20385,3.39557 5.06016,-20.42474 6.26401,-23.82031 34.52741,-26.26352 34.52741,-26.26352 z" transform="scale(0.03125,0.03125)" style="fill:#ffffff" />
  </g>
</svg>
